<?xml version="1.0" standalone="no"?>
<!DOCTYPE svg PUBLIC "-//W3C//DTD SVG 20010904//EN"
 "http://www.w3.org/TR/2001/REC-SVG-20010904/DTD/svg10.dtd">
<svg version="1.0" xmlns="http://www.w3.org/2000/svg"
 width="24.000000pt" height="24.000000pt" viewBox="0 0 24.000000 24.000000"
 preserveAspectRatio="xMidYMid meet">

<g transform="translate(0.000000,24.000000) scale(0.100000,-0.100000)"
fill="#000000" stroke="none">
<path d="M25 215 c-15 -14 -25 -36 -25 -53 0 -27 47 -112 69 -126 6 -4 -2 13
-19 37 -43 64 -49 102 -20 132 30 32 70 32 98 2 27 -29 28 -52 2 -100 -25 -46
-17 -49 10 -4 11 17 20 45 20 60 0 38 -40 77 -80 77 -19 0 -40 -9 -55 -25z"/>
<path d="M50 185 c-15 -18 -10 -45 13 -59 34 -22 73 27 47 59 -16 19 -44 19
-60 0z m55 -25 c0 -18 -6 -26 -23 -28 -13 -2 -25 3 -28 12 -10 26 4 48 28 44
17 -2 23 -10 23 -28z"/>
<path d="M130 45 c-7 -8 -16 -12 -21 -9 -14 8 -11 -12 4 -24 16 -13 98 -13
115 0 14 12 17 32 3 24 -5 -3 -14 1 -21 9 -16 19 -64 19 -80 0z m78 -7 c20
-20 14 -24 -38 -24 -27 0 -50 3 -50 6 0 27 65 41 88 18z"/>
</g>
</svg>
