<?xml version="1.0" standalone="no"?>
<!DOCTYPE svg PUBLIC "-//W3C//DTD SVG 20010904//EN"
 "http://www.w3.org/TR/2001/REC-SVG-20010904/DTD/svg10.dtd">
<svg version="1.0" xmlns="http://www.w3.org/2000/svg"
 width="48.000000pt" height="48.000000pt" viewBox="0 0 48.000000 48.000000"
 preserveAspectRatio="xMidYMid meet">

<g transform="translate(0.000000,48.000000) scale(0.100000,-0.100000)"
fill="#000000" stroke="none">
<path d="M95 466 c-58 -27 -95 -85 -95 -151 0 -19 15 -62 33 -97 49 -95 127
-194 127 -162 0 3 -20 34 -45 68 -55 78 -95 161 -95 201 0 40 32 90 72 115 84
51 191 -5 205 -107 4 -31 -3 -53 -36 -117 -23 -44 -39 -82 -36 -84 8 -8 32 26
66 95 26 52 31 71 26 109 -9 79 -65 134 -144 141 -28 2 -61 -2 -78 -11z"/>
<path d="M105 375 c-50 -49 -15 -135 55 -135 41 0 80 39 80 80 0 41 -39 80
-80 80 -19 0 -40 -9 -55 -25z m95 -15 c11 -11 20 -29 20 -40 0 -26 -34 -60
-60 -60 -26 0 -60 34 -60 60 0 26 34 60 60 60 11 0 29 -9 40 -20z"/>
<path d="M259 94 c-12 -13 -31 -24 -41 -24 -25 0 -23 -22 5 -48 27 -26 64 -28
95 -6 20 14 24 14 44 0 32 -23 71 -20 96 7 26 28 28 47 5 47 -9 0 -27 10 -41
23 -35 33 -132 34 -163 1z m161 -27 c27 -23 31 -30 19 -38 -22 -13 -55 -11
-69 6 -7 8 -20 15 -30 15 -10 0 -23 -7 -30 -15 -14 -17 -47 -19 -69 -6 -11 7
-7 15 19 38 46 41 111 41 160 0z"/>
</g>
</svg>
