<?xml version="1.0" standalone="no"?>
<!DOCTYPE svg PUBLIC "-//W3C//DTD SVG 20010904//EN"
 "http://www.w3.org/TR/2001/REC-SVG-20010904/DTD/svg10.dtd">
<svg version="1.0" xmlns="http://www.w3.org/2000/svg"
 width="48.000000pt" height="48.000000pt" viewBox="0 0 48.000000 48.000000"
 preserveAspectRatio="xMidYMid meet">

<g transform="translate(0.000000,48.000000) scale(0.100000,-0.100000)"
fill="#000000" stroke="none">
<path d="M169 441 c-12 -16 -30 -32 -40 -34 -26 -7 -25 -47 1 -54 18 -5 20
-14 20 -113 0 -99 -2 -108 -20 -113 -26 -7 -27 -47 -1 -54 10 -2 28 -18 40
-34 19 -25 28 -29 71 -29 43 0 52 4 71 29 12 16 30 32 40 34 26 7 25 47 -1 54
-18 5 -20 14 -20 113 0 99 2 108 20 113 26 7 27 47 1 54 -10 2 -28 18 -40 34
-19 25 -28 29 -71 29 -43 0 -52 -4 -71 -29z m126 -11 c18 -20 17 -20 -55 -20
-72 0 -73 0 -55 20 12 13 31 20 55 20 24 0 43 -7 55 -20z m55 -50 c0 -6 -43
-10 -110 -10 -67 0 -110 4 -110 10 0 6 43 10 110 10 67 0 110 -4 110 -10z
m-140 -33 c0 -2 -9 -12 -20 -22 -19 -18 -20 -17 -20 3 0 15 6 22 20 22 11 0
20 -2 20 -3z m25 -57 c-53 -54 -60 -58 -63 -39 -5 30 63 99 97 99 23 0 20 -5
-34 -60z m6 -74 c-63 -63 -71 -68 -71 -46 0 17 21 46 68 93 59 59 67 65 70 46
3 -16 -15 -41 -67 -93z m33 -47 c-24 -25 -47 -39 -63 -39 -23 0 -20 5 34 60
53 54 60 58 63 39 3 -14 -9 -34 -34 -60z m36 -19 c0 -14 -7 -20 -22 -20 -20 0
-21 1 -3 20 10 11 20 20 22 20 1 0 3 -9 3 -20z m40 -50 c0 -6 -43 -10 -110
-10 -67 0 -110 4 -110 10 0 6 43 10 110 10 67 0 110 -4 110 -10z m-55 -50
c-12 -13 -31 -20 -55 -20 -24 0 -43 7 -55 20 -18 20 -17 20 55 20 72 0 73 0
55 -20z"/>
</g>
</svg>
