<?xml version="1.0" standalone="no"?>
<!DOCTYPE svg PUBLIC "-//W3C//DTD SVG 20010904//EN"
 "http://www.w3.org/TR/2001/REC-SVG-20010904/DTD/svg10.dtd">
<svg version="1.0" xmlns="http://www.w3.org/2000/svg"
 width="24.000000pt" height="24.000000pt" viewBox="0 0 24.000000 24.000000"
 preserveAspectRatio="xMidYMid meet">
<metadata>
Created by potrace 1.16, written by Peter Selinger 2001-2019
</metadata>
<g transform="translate(0.000000,24.000000) scale(0.100000,-0.100000)"
fill="#000000" stroke="none">
<path d="M140 224 c-14 -7 -40 -14 -57 -14 -46 0 -73 -30 -73 -80 0 -47 7 -50
36 -13 19 25 24 26 48 15 20 -9 32 -9 52 0 24 11 29 10 48 -15 12 -15 25 -27
29 -27 11 0 7 72 -7 110 -14 39 -37 46 -76 24z"/>
</g>
</svg>
