<?xml version="1.0" standalone="no"?>
<!DOCTYPE svg PUBLIC "-//W3C//DTD SVG 20010904//EN"
 "http://www.w3.org/TR/2001/REC-SVG-20010904/DTD/svg10.dtd">
<svg version="1.0" xmlns="http://www.w3.org/2000/svg"
 width="48.000000pt" height="48.000000pt" viewBox="0 0 48.000000 48.000000"
 preserveAspectRatio="xMidYMid meet">

<g transform="translate(0.000000,48.000000) scale(0.100000,-0.100000)"
fill="#000000" stroke="none">
<path d="M41 462 c-56 -30 -51 -42 18 -42 54 0 61 -2 61 -19 0 -14 -8 -21 -27
-23 -22 -2 -29 -9 -31 -30 -2 -16 -9 -28 -17 -28 -7 0 -21 -7 -29 -16 -13 -12
-16 -40 -16 -144 0 -156 2 -160 96 -160 85 0 82 18 -3 22 l-68 3 0 135 0 135
125 0 125 0 3 -68 c4 -85 22 -88 22 -3 0 65 -14 96 -45 96 -8 0 -15 12 -17 28
-2 21 -9 28 -30 30 -20 2 -28 9 -28 22 0 13 8 20 28 22 21 2 27 8 27 28 0 24
-2 25 -80 28 -63 2 -87 -2 -114 -16z m179 -12 c0 -6 -36 -10 -87 -10 -61 0
-83 3 -73 10 20 13 160 13 160 0z m-60 -50 c0 -11 -4 -20 -10 -20 -5 0 -10 9
-10 20 0 11 5 20 10 20 6 0 10 -9 10 -20z m60 -60 c0 -18 -7 -20 -70 -20 -63
0 -70 2 -70 20 0 18 7 20 70 20 63 0 70 -2 70 -20z"/>
<path d="M259 94 c-12 -13 -31 -24 -41 -24 -25 0 -23 -22 5 -48 27 -26 64 -28
95 -6 20 14 24 14 44 0 32 -23 71 -20 96 7 26 28 28 47 5 47 -9 0 -27 10 -41
23 -35 33 -132 34 -163 1z m161 -27 c27 -23 31 -30 19 -38 -22 -13 -55 -11
-69 6 -7 8 -20 15 -30 15 -10 0 -23 -7 -30 -15 -14 -17 -47 -19 -69 -6 -11 7
-7 15 19 38 46 41 111 41 160 0z"/>
</g>
</svg>
