<?xml version="1.0" standalone="no"?>
<!DOCTYPE svg PUBLIC "-//W3C//DTD SVG 20010904//EN"
 "http://www.w3.org/TR/2001/REC-SVG-20010904/DTD/svg10.dtd">
<svg version="1.0" xmlns="http://www.w3.org/2000/svg"
 width="24.000000pt" height="24.000000pt" viewBox="0 0 24.000000 24.000000"
 preserveAspectRatio="xMidYMid meet">

<g transform="translate(0.000000,24.000000) scale(0.100000,-0.100000)"
fill="#000000" stroke="none">
<path d="M72 228 c-16 -16 -16 -95 1 -101 9 -4 8 -8 -3 -16 -23 -16 -33 -13
-27 9 3 12 0 20 -8 20 -9 0 -11 -8 -7 -22 8 -32 27 -48 56 -48 31 0 34 -20 6
-38 -33 -21 -23 -32 30 -32 53 0 63 11 30 32 -28 18 -25 38 6 38 29 0 48 16
56 48 4 14 2 22 -7 22 -8 0 -11 -8 -8 -20 6 -22 -4 -25 -27 -9 -11 8 -12 12
-2 16 15 6 16 67 2 94 -12 22 -78 27 -98 7z m86 -10 c7 -7 12 -27 12 -45 0
-33 0 -33 -50 -33 -50 0 -50 0 -50 33 0 18 5 38 12 45 15 15 61 15 76 0z m-8
-98 c0 -5 -13 -10 -30 -10 -16 0 -30 5 -30 10 0 6 14 10 30 10 17 0 30 -4 30
-10z m30 -30 c0 -6 -27 -10 -60 -10 -33 0 -60 4 -60 10 0 6 27 10 60 10 33 0
60 -4 60 -10z m-25 -70 c4 -6 -10 -10 -35 -10 -25 0 -39 4 -35 10 3 6 19 10
35 10 16 0 32 -4 35 -10z"/>
</g>
</svg>
