<?xml version="1.0" encoding="UTF-8"?>
<!DOCTYPE svg PUBLIC "-//W3C//DTD SVG 1.1//EN" "http://www.w3.org/Graphics/SVG/1.1/DTD/svg11.dtd">
<svg xmlns="http://www.w3.org/2000/svg" version="1.1" width="50px" height="50px" style="shape-rendering:geometricPrecision; text-rendering:geometricPrecision; image-rendering:optimizeQuality; fill-rule:evenodd; clip-rule:evenodd" xmlns:xlink="http://www.w3.org/1999/xlink">
<g><path style="opacity:0.666" fill="#000000" d="M 35.5,-0.5 C 37.1667,-0.5 38.8333,-0.5 40.5,-0.5C 38.8818,4.6359 36.5485,9.46923 33.5,14C 38.7688,13.4037 44.1021,12.9037 49.5,12.5C 49.5,13.8333 49.5,15.1667 49.5,16.5C 40.8559,20.882 31.8559,24.382 22.5,27C 27.2343,30.8391 27.7343,35.3391 24,40.5C 22.0749,42.2132 19.9082,43.5465 17.5,44.5C 18.3094,46.0709 18.6427,47.7376 18.5,49.5C 16.8333,49.5 15.1667,49.5 13.5,49.5C 12.9579,45.0076 11.9579,40.6743 10.5,36.5C 10.8996,33.3011 11.8996,30.3011 13.5,27.5C 10.2152,26.6764 6.88182,26.1764 3.5,26C 2.01608,25.3378 0.682751,24.5045 -0.5,23.5C -0.5,20.8333 -0.5,18.1667 -0.5,15.5C 3.62817,12.5513 8.29484,11.7179 13.5,13C 15.5433,14.8114 17.0433,16.978 18,19.5C 22.6097,11.7261 28.4431,5.05948 35.5,-0.5 Z M 33.5,6.5 C 31.377,13.0857 27.5436,18.4191 22,22.5C 21.5,22 21,21.5 20.5,21C 23.9579,15.3758 28.2912,10.5424 33.5,6.5 Z M 28.5,21.5 C 29.2899,20.2058 30.2899,19.0391 31.5,18C 34.5214,17.3265 37.5214,16.9932 40.5,17C 36.6582,19.0017 32.6582,20.5017 28.5,21.5 Z M 7.5,17.5 C 11.0937,18.5615 11.2604,19.8948 8,21.5C 4.93703,20.3248 4.77036,18.9914 7.5,17.5 Z M 13.5,19.5 C 17.6303,21.8751 17.297,23.0418 12.5,23C 13.3366,21.9887 13.67,20.8221 13.5,19.5 Z M 19.5,24.5 C 20.0838,27.285 19.0838,28.9517 16.5,29.5C 16.7497,27.326 17.7497,25.6594 19.5,24.5 Z M 17.5,32.5 C 18.675,32.281 19.675,32.6143 20.5,33.5C 17.389,38.9906 16.389,38.6572 17.5,32.5 Z"/></g>
</svg>
