<?xml version="1.0" standalone="no"?>
<!DOCTYPE svg PUBLIC "-//W3C//DTD SVG 20010904//EN"
 "http://www.w3.org/TR/2001/REC-SVG-20010904/DTD/svg10.dtd">
<svg version="1.0" xmlns="http://www.w3.org/2000/svg"
 width="48.000000pt" height="48.000000pt" viewBox="0 0 48.000000 48.000000"
 preserveAspectRatio="xMidYMid meet">

<g transform="translate(0.000000,48.000000) scale(0.100000,-0.100000)"
fill="#000000" stroke="none">
<path d="M149 451 c-27 -27 -29 -35 -29 -106 0 -68 2 -77 20 -82 29 -8 25 -36
-7 -50 -42 -20 -53 -16 -53 17 0 17 5 30 10 30 6 0 10 5 10 10 0 6 -13 10 -30
10 -16 0 -30 -4 -30 -10 0 -5 5 -10 10 -10 6 0 10 -16 10 -36 0 -27 5 -37 20
-41 11 -3 20 -14 20 -24 0 -17 8 -19 65 -19 l65 0 0 -30 c0 -25 -4 -30 -23
-30 -27 0 -67 -38 -67 -63 0 -15 13 -17 100 -17 90 0 100 2 100 18 0 25 -41
62 -68 62 -18 0 -22 6 -22 30 l0 30 65 0 c57 0 65 2 65 19 0 10 9 21 20 24 15
4 20 14 20 41 0 20 5 36 10 36 6 0 10 5 10 10 0 6 -13 10 -30 10 -16 0 -30 -4
-30 -10 0 -5 5 -10 10 -10 6 0 10 -13 10 -30 0 -33 -11 -37 -53 -17 -32 14
-36 42 -7 50 18 5 20 14 20 82 0 71 -2 79 -29 106 -26 26 -36 29 -91 29 -55 0
-65 -3 -91 -29z m168 -13 c20 -18 23 -31 23 -90 l0 -68 -100 0 -100 0 0 67 c0
90 20 113 99 113 42 0 60 -5 78 -22z m-17 -198 c0 -18 -7 -20 -60 -20 -53 0
-60 2 -60 20 0 18 7 20 60 20 53 0 60 -2 60 -20z m58 -62 c3 -16 -8 -18 -117
-18 -94 0 -121 3 -121 13 0 25 14 28 124 25 96 -3 111 -5 114 -20z m-53 -138
c18 -20 17 -20 -65 -20 -82 0 -83 0 -65 20 13 15 31 20 65 20 34 0 52 -5 65
-20z"/>
</g>
</svg>
