<?xml version="1.0" standalone="no"?>
<!DOCTYPE svg PUBLIC "-//W3C//DTD SVG 20010904//EN"
 "http://www.w3.org/TR/2001/REC-SVG-20010904/DTD/svg10.dtd">
<svg version="1.0" xmlns="http://www.w3.org/2000/svg"
 width="50.000000pt" height="50.000000pt" viewBox="0 0 50.000000 50.000000"
 preserveAspectRatio="xMidYMid meet">

<g transform="translate(0.000000,50.000000) scale(0.100000,-0.100000)"
fill="#000000" stroke="none">
<path d="M26 298 c-52 -73 24 -131 147 -113 62 9 82 9 167 0 81 -9 136 10 146
50 13 51 -29 101 -65 78 -24 -15 -21 -57 4 -60 11 -2 14 0 8 3 -20 9 -16 36 5
32 22 -4 22 -38 0 -52 -13 -8 -32 -3 -85 21 -37 18 -84 32 -103 32 -19 0 -66
-14 -103 -32 -53 -24 -72 -29 -85 -21 -22 14 -22 48 1 52 20 4 24 -23 5 -32
-7 -3 -4 -5 7 -3 40 5 25 67 -16 67 -10 0 -25 -10 -33 -22z"/>
</g>
</svg>
